<?xml version="1.0" encoding="UTF-8" standalone="no"?>
<!-- Created with Inkscape (http://www.inkscape.org/) -->
<svg xmlns:dc="http://purl.org/dc/elements/1.1/" xmlns:cc="http://creativecommons.org/ns#" xmlns:rdf="http://www.w3.org/1999/02/22-rdf-syntax-ns#" xmlns:svg="http://www.w3.org/2000/svg" xmlns="http://www.w3.org/2000/svg" xmlns:sodipodi="http://sodipodi.sourceforge.net/DTD/sodipodi-0.dtd" xmlns:inkscape="http://www.inkscape.org/namespaces/inkscape" width="1000" height="197.29469" id="svg2" version="1.1" inkscape:version="0.48.2 r9819" sodipodi:docname="New document 1">
  <defs id="defs4"/>
  <sodipodi:namedview id="base" pagecolor="#ffffff" bordercolor="#666666" borderopacity="1.0" inkscape:pageopacity="0.0" inkscape:pageshadow="2" inkscape:zoom="0.7" inkscape:cx="849.76231" inkscape:cy="9.8080359" inkscape:document-units="px" inkscape:current-layer="layer1" showgrid="false" fit-margin-left="0.5" fit-margin-bottom="0.5" fit-margin-top="0.5" fit-margin-right="0.5" inkscape:window-width="1920" inkscape:window-height="1028" inkscape:window-x="-8" inkscape:window-y="-8" inkscape:window-maximized="1">
    <inkscape:grid type="xygrid" id="grid2996" empspacing="5" visible="true" enabled="true" snapvisiblegridlinesonly="true"/>
  </sodipodi:namedview>
  <metadata id="metadata7">
    <rdf:RDF>
      <cc:Work rdf:about="">
        <dc:format>image/svg+xml</dc:format>
        <dc:type rdf:resource="http://purl.org/dc/dcmitype/StillImage"/>
        <dc:title/>
      </cc:Work>
    </rdf:RDF>
  </metadata>
  <g inkscape:label="Layer 1" inkscape:groupmode="layer" id="layer1" transform="translate(1.0357143,-1193.5675)">
    <path style="fill:#6d3995;fill-opacity:1;stroke:none" d="m 829.99995,1215.6202 c -66.66866,0 -94.83903,33.7089 -94.83903,70.1299 0,46.8904 45.06072,68.9237 95.0458,68.9237 57.12411,0 95.70058,-25.5825 95.70058,-69.4407 0,-40.4538 -32.76192,-69.6129 -95.90735,-69.6129 z m 0.2757,26.8802 c 26.84019,0 55.07005,14.9602 55.07005,42.3537 0,25.8192 -24.99087,42.3192 -54.55312,42.3192 -30.86698,0 -55.03559,-17.8022 -55.03559,-42.0435 0,-22.3928 22.6271,-42.6294 54.51866,-42.6294 z" id="path3012" inkscape:connector-curvature="0"/>
    <path style="fill:#6d3995;fill-opacity:1;stroke:none" d="m 153.3414,1390.3622 -52.93341,0 0,-68.3723 C 65.650985,1270.7155 -0.53571429,1194.0675 -0.53571429,1194.0675 l 64.55198029,0 c 0,0 8.898988,7.2249 26.7452,31.0171 l 44.147754,58.0126 60.3378,-63.6658 55.43436,0 c 0,0 -65.47831,61.9406 -99.54554,100.3529 z" id="path3000" inkscape:connector-curvature="0" sodipodi:nodetypes="ccccccccccc"/>
    <path style="fill:#6d3995;fill-opacity:1;stroke:none" d="m 268.75416,1248.6002 -82.91523,125.4412 c 15.04695,-1.3242 39.94129,-0.379 39.94129,-0.379 l 17.19647,-26.6736 75.98839,-3.3428 20.67712,34.841 49.10814,-0.2413 -76.36747,-129.0251 -43.62871,-0.6204 z m 14.95644,34.0484 21.98667,37.9425 -46.52351,0.2067 24.53684,-38.1492 z" id="path3002" inkscape:connector-curvature="0"/>
    <path style="fill:#6d3995;fill-opacity:1;stroke:none" d="m 380.61242,1348.9489 0,-117.9581 c 13.87137,0.7177 27.80451,0.7559 41.80716,0.03 l 0,44.6528 72.78344,0 -1.10278,-44.702 c 14.20589,0.586 28.53993,0.5955 43.00839,0 l 0,118.0466 c -14.17563,-0.7818 -29.75006,-0.6687 -41.90561,0.079 l 0,-48.0596 -72.78344,2.2056 0,45.7555 c -14.88181,-0.3075 -28.62755,-0.2655 -41.80716,-0.05 z" id="path3006" inkscape:connector-curvature="0" sodipodi:nodetypes="cccccccccccccc"/>
    <path style="fill:#6d3995;fill-opacity:1;stroke:none" d="m 639.08127,1226.1656 c -52.06924,0 -87.84327,22.9756 -87.84327,64.0991 0,40.2304 33.88608,64.4091 87.53311,64.4091 51.04866,0 87.53312,-21.6451 87.53312,-63.3409 0,-49.9659 -48.03224,-65.1673 -87.22296,-65.1673 z m -0.48247,26.0876 c 25.54945,0 49.21153,12.2801 49.21153,38.3216 0,26.1696 -23.17377,37.9769 -48.83245,37.9769 -25.22782,0 -49.03922,-11.9403 -49.03922,-37.9769 0,-23.0784 17.40891,-38.3216 48.66014,-38.3216 z" id="path3008" inkscape:connector-curvature="0"/>
    <g id="g3034" transform="matrix(1.1027794,0,0,1.1027794,0.0550604,-142.90061)">
      <path sodipodi:nodetypes="ccccc" inkscape:connector-curvature="0" id="path3016" d="m 844.46429,1373.7908 3.21428,-28.75 c 16.42288,0.8661 17.07312,0.7484 34.19643,0.4464 l -3.30357,27.8571 c 0,0 -23.60523,-0.7397 -34.10714,0.4465 z" style="fill:#6d3995;fill-opacity:1;stroke:none"/>
      <path inkscape:connector-curvature="0" id="path3018" d="m 852.76786,1326.38 0.53571,-113.75 52.05358,0 -22.94643,113.8393 z" style="fill:#6d3995;fill-opacity:1;stroke:none"/>
    </g>
  </g>
</svg>